# xmcd CD database file
#
# Track frame offsets:
#	150
#	22163
#	41608
#	87264
#	109244
#
# Disc length: 1710 seconds
#
# Revision: 3
# Processed by: cddbd v1.5.2PL0 Copyright (c) Steve Scherf et al.
# Submitted via: CDex 1.70beta2
#
DISCID=3b06ac05
DTITLE=AAA - Miss you - ほほえみの咲く場所
DYEAR=2013
DGENRE=J-Pop
TTITLE0=Miss you
TTITLE1=ほほえみの咲く場所
TTITLE2=AAA 2012 SINGLE MEGA MIX (777 ～We can sing!～ - SAILING - Still Love You - 虹) 
TTITLE3=Miss you (Instrumental) 
TTITLE4=ほほえみの咲く場所 (Instrumental)
EXTD=YEAR: 2013
EXTT0=
EXTT1=
EXTT2=
EXTT3=
EXTT4=
PLAYORDER=
